#N canvas 0 0 900 700 12;
#X text 30 15 Class Drone - SoundCue Teachable Machine;
#X text 30 35 class -> drone timbre \, confidence -> volume;
#X text 30 55 Change class names to match your TM model;
#X obj 50 100 else/osc.receive 8000;
#X obj 50 140 else/osc.route /tm;
#X obj 50 180 else/osc.route /class /confidence;
#X obj 50 230 route class_1 class_2 class_3;
#X msg 50 280 0;
#X msg 150 280 1;
#X msg 250 280 2;
#X obj 50 320 f 0;
#X obj 50 360 change;
#X obj 50 400 select 0 1 2;
#X obj 50 460 osc~ 110;
#X text 130 460 class_1: low drone (110 Hz);
#X obj 300 460 osc~ 165;
#X obj 300 500 *~ 0.7;
#X obj 300 540 osc~ 220;
#X obj 300 580 *~ 0.3;
#X text 400 460 class_2: FM mod (165 Hz carrier);
#X obj 550 460 noise~;
#X obj 550 500 bp~ 330 5;
#X obj 550 540 *~ 0.5;
#X text 660 460 class_3: filtered noise (330 Hz);
#X obj 50 560 *~ 0;
#X obj 300 630 *~ 0;
#X obj 550 630 *~ 0;
#X msg 100 440 1;
#X msg 350 440 1;
#X msg 600 440 1;
#X msg 50 440 0 \, 1 50;
#X msg 300 440 0 \, 1 50;
#X msg 550 440 0 \, 1 50;
#X obj 50 610 +~;
#X obj 50 650 +~;
#X obj 500 230 else/smooth 50;
#X obj 500 270 cyclone/scale 0 1 0.05 0.4;
#X obj 50 700 *~;
#X obj 50 750 else/out~ 1;
#X connect 3 0 4 0;
#X connect 4 0 5 0;
#X connect 5 0 6 0;
#X connect 5 1 35 0;
#X connect 6 0 7 0;
#X connect 6 1 8 0;
#X connect 6 2 9 0;
#X connect 7 0 10 0;
#X connect 8 0 10 0;
#X connect 9 0 10 0;
#X connect 10 0 11 0;
#X connect 11 0 12 0;
#X connect 12 0 30 0;
#X connect 12 1 31 0;
#X connect 12 2 32 0;
#X connect 30 0 24 1;
#X connect 31 0 25 1;
#X connect 32 0 26 1;
#X connect 13 0 24 0;
#X connect 15 0 16 0;
#X connect 16 0 17 0;
#X connect 17 0 18 0;
#X connect 18 0 25 0;
#X connect 20 0 21 0;
#X connect 21 0 22 0;
#X connect 22 0 26 0;
#X connect 24 0 33 0;
#X connect 25 0 33 1;
#X connect 33 0 34 0;
#X connect 26 0 34 1;
#X connect 35 0 36 0;
#X connect 36 0 37 1;
#X connect 34 0 37 0;
#X connect 37 0 38 0;
