#N canvas 0 0 900 650 12;
#X text 30 15 Class Bells - SoundCue YAMNet;
#X text 30 35 sound class change -> bell sound (C major chord);
#X text 30 55 confidence -> volume;
#X obj 50 100 else/osc.receive 8000;
#X obj 50 140 else/osc.route /yamnet;
#X obj 50 180 else/osc.route /class /confidence;
#X obj 50 230 change;
#X obj 50 270 bangbang 4;
#X obj 50 310 random 4;
#X obj 50 350 select 0 1 2 3;
#X msg 50 400 0 \, 1 5 \, 0 2000;
#X obj 50 440 vline~;
#X obj 50 480 osc~ 523;
#X obj 50 520 *~;
#X msg 220 400 0 \, 1 5 \, 0 2000;
#X obj 220 440 vline~;
#X obj 220 480 osc~ 659;
#X obj 220 520 *~;
#X msg 390 400 0 \, 1 5 \, 0 2000;
#X obj 390 440 vline~;
#X obj 390 480 osc~ 784;
#X obj 390 520 *~;
#X msg 560 400 0 \, 1 5 \, 0 2000;
#X obj 560 440 vline~;
#X obj 560 480 osc~ 1047;
#X obj 560 520 *~;
#X text 120 480 C5;
#X text 290 480 E5;
#X text 460 480 G5;
#X text 630 480 C6;
#X obj 50 570 +~;
#X obj 50 600 +~;
#X obj 50 630 +~;
#X obj 500 230 else/smooth 50;
#X obj 500 270 cyclone/scale 0 1 0.05 0.25;
#X obj 50 670 *~;
#X obj 50 720 else/out~ 1;
#X connect 3 0 4 0;
#X connect 4 0 5 0;
#X connect 5 0 6 0;
#X connect 5 1 33 0;
#X connect 6 0 7 0;
#X connect 7 0 8 0;
#X connect 8 0 9 0;
#X connect 9 0 10 0;
#X connect 9 1 14 0;
#X connect 9 2 18 0;
#X connect 9 3 22 0;
#X connect 10 0 11 0;
#X connect 11 0 13 1;
#X connect 12 0 13 0;
#X connect 14 0 15 0;
#X connect 15 0 17 1;
#X connect 16 0 17 0;
#X connect 18 0 19 0;
#X connect 19 0 21 1;
#X connect 20 0 21 0;
#X connect 22 0 23 0;
#X connect 23 0 25 1;
#X connect 24 0 25 0;
#X connect 13 0 30 0;
#X connect 17 0 30 1;
#X connect 30 0 31 0;
#X connect 21 0 31 1;
#X connect 31 0 32 0;
#X connect 25 0 32 1;
#X connect 33 0 34 0;
#X connect 34 0 35 1;
#X connect 32 0 35 0;
#X connect 35 0 36 0;
